<svg width="60" height="60" viewBox="0 0 60 60" fill="none" xmlns="http://www.w3.org/2000/svg">
<path d="M48.5 37H43V23H48.5C54.84 23 60 17.84 60 11.5C60 5.16 54.84 0 48.5 0C42.16 0 37 5.16 37 11.5V17H23V11.5C23 5.16 17.84 0 11.5 0C5.16 0 0 5.16 0 11.5C0 17.84 5.16 23 11.5 23H17V37H11.5C5.16 37 0 42.16 0 48.5C0 54.84 5.16 60 11.5 60C17.84 60 23 54.84 23 48.5V43H37V48.5C37 54.84 42.16 60 48.5 60C54.84 60 60 54.84 60 48.5C60 42.16 54.84 37 48.5 37ZM43 11.5C43 8.47 45.47 6 48.5 6C51.53 6 54 8.47 54 11.5C54 14.53 51.53 17 48.5 17H43V11.5ZM17 48.5C17 51.53 14.53 54 11.5 54C8.47 54 6 51.53 6 48.5C6 45.47 8.47 43 11.5 43H17V48.5ZM17 17H11.5C8.47 17 6 14.53 6 11.5C6 8.47 8.47 6 11.5 6C14.53 6 17 8.47 17 11.5V17ZM37 37H23V23H37V37ZM48.5 54C45.47 54 43 51.53 43 48.5V43H48.5C51.53 43 54 45.47 54 48.5C54 51.53 51.53 54 48.5 54Z" fill="black"/>
</svg>
