<svg width="58" height="62" viewBox="0 0 58 62" fill="none" xmlns="http://www.w3.org/2000/svg">
<path d="M15.23 46.34C19.62 48.1 24.26 49 29 49C33.74 49 38.38 48.11 42.77 46.34L43.6 46.01L51.36 60.42C51.88 61.39 52.9 62 54 62C54.49 62 54.98 61.88 55.42 61.64C56.13 61.26 56.64 60.63 56.87 59.86C57.1 59.09 57.02 58.28 56.64 57.58L48.9 43.2L49.65 42.69C52.46 40.8 55 38.52 57.2 35.94C57.72 35.33 57.97 34.55 57.9 33.75C57.83 32.95 57.46 32.23 56.85 31.71C56.24 31.19 55.47 30.94 54.67 31.01C53.87 31.07 53.15 31.45 52.63 32.06C50.99 34 49.08 35.74 46.97 37.24L46.05 37.9L37.8 22.58L38.31 22.05C40.69 19.6 42 16.39 42 13C42 5.83 36.17 0 29 0C21.83 0 16 5.83 16 13C16 16.39 17.31 19.61 19.69 22.05L20.2 22.58L11.95 37.9L11.03 37.24C8.92 35.74 7.02 33.99 5.37 32.05C4.85 31.44 4.12 31.07 3.33 31C2.53 30.93 1.76 31.19 1.15 31.7C0.540002 32.22 0.170003 32.94 0.100003 33.74C0.0400031 34.54 0.290002 35.31 0.800002 35.93C3 38.52 5.54 40.79 8.35 42.68L9.1 43.19L1.36 57.57C0.980003 58.28 0.900002 59.09 1.13 59.85C1.36 60.62 1.88 61.25 2.58 61.63C3.02 61.87 3.51 61.99 4 61.99C5.11 61.99 6.12 61.39 6.64 60.41L14.4 46L15.23 46.33V46.34ZM29 6C32.86 6 36 9.14 36 13C36 16.86 32.86 20 29 20C25.14 20 22 16.86 22 13C22 9.14 25.14 6 29 6ZM25.44 25.52L26.18 25.68C28.08 26.1 29.93 26.1 31.83 25.68L32.57 25.52L40.75 40.71L39.67 41.11C36.23 42.37 32.65 43.01 29.01 43.01C25.37 43.01 21.79 42.37 18.35 41.11L17.27 40.71L25.45 25.52H25.44Z" fill="black"/>
</svg>
