<svg width="62" height="63" viewBox="0 0 62 63" fill="none" xmlns="http://www.w3.org/2000/svg">
<path d="M31 25C24.38 25 19 30.38 19 37C19 43.62 24.38 49 31 49C37.62 49 43 43.62 43 37C43 30.38 37.62 25 31 25ZM31 43C27.69 43 25 40.31 25 37C25 33.69 27.69 31 31 31C34.31 31 37 33.69 37 37C37 40.31 34.31 43 31 43Z" fill="black"/>
<path d="M62 37C62 34.19 61.25 31.42 59.84 29.01C58.32 26.41 55.71 22.58 51.93 19.17L51.27 18.57L55.44 12.73C55.91 12.08 56.09 11.28 55.96 10.49C55.83 9.7 55.4 9.01 54.75 8.54C53.4 7.58 51.53 7.89 50.56 9.24L46.39 15.07L45.61 14.65C42.28 12.83 38.67 11.68 34.88 11.22L34 11.11V3.98C34 2.33 32.65 0.979996 31 0.979996C29.35 0.979996 28 2.33 28 3.98V11.11L27.12 11.22C23.33 11.68 19.72 12.83 16.39 14.65L15.61 15.07L11.44 9.24C10.86 8.42 9.93 7.99 8.99 7.99C8.39 7.99 7.78 8.17 7.25 8.55C6.6 9.02 6.17 9.71 6.04 10.5C5.91 11.29 6.09 12.08 6.56 12.74L10.73 18.58L10.07 19.18C6.3 22.59 3.69 26.41 2.16 29.01C0.75 31.42 0 34.18 0 37C0 39.82 0.75 42.58 2.16 44.99C6.1 51.72 15.08 63 31 63C46.92 63 55.9 51.72 59.84 44.99C61.25 42.58 62 39.82 62 37ZM54.66 41.96C51.37 47.58 43.93 57 31 57C18.07 57 10.63 47.57 7.34 41.96C6.47 40.47 6 38.75 6 37C6 35.25 6.46 33.54 7.34 32.04C10.63 26.42 18.07 17 31 17C43.93 17 51.37 26.43 54.66 32.04C55.53 33.53 56 35.25 56 37C56 38.75 55.54 40.46 54.66 41.96Z" fill="black"/>
</svg>
