<svg width="62" height="62" viewBox="0 0 62 62" fill="none" xmlns="http://www.w3.org/2000/svg">
<path d="M11 62H25C26.65 62 28 60.65 28 59C28 57.35 26.65 56 25 56H11C8.24 56 6 53.76 6 51V19C6 16.24 8.24 14 11 14H23.34C25.21 14 26.97 13.27 28.29 11.95L34.24 6H51C53.76 6 56 8.24 56 11V24C56 25.65 57.35 27 59 27C60.65 27 62 25.65 62 24V11C62 4.93 57.07 0 51 0H34.66C32.79 0 31.03 0.729999 29.71 2.05L23.76 8H11C4.93 8 0 12.93 0 19V51C0 57.07 4.93 62 11 62Z" fill="black"/>
<path d="M48 62C49.65 62 51 60.65 51 59V51H59C60.65 51 62 49.65 62 48C62 46.35 60.65 45 59 45H51V37C51 35.35 49.65 34 48 34C46.35 34 45 35.35 45 37V45H37C35.35 45 34 46.35 34 48C34 49.65 35.35 51 37 51H45V59C45 60.65 46.35 62 48 62Z" fill="black"/>
</svg>
