<svg width="61" height="62" viewBox="0 0 61 62" fill="none" xmlns="http://www.w3.org/2000/svg">
<path d="M27 15C25.35 15 24 16.35 24 18V28C24 32.96 28.04 37 33 37H40C41.65 37 43 35.65 43 34C43 32.35 41.65 31 40 31H33C31.35 31 30 29.65 30 28V18C30 16.35 28.65 15 27 15Z" fill="black"/>
<path d="M38.18 0.84C35.83 0.28 33.42 0 31 0C28.58 0 26.17 0.28 23.82 0.84C22.21 1.22 21.21 2.84 21.59 4.45C21.78 5.23 22.25 5.89 22.94 6.31C23.62 6.73 24.43 6.86 25.21 6.67C29 5.77 33.01 5.77 36.8 6.67C38.41 7.05 40.04 6.03 40.41 4.44C40.59 3.66 40.47 2.86 40.04 2.17C39.62 1.49 38.96 1.01 38.18 0.83V0.84Z" fill="black"/>
<path d="M54.96 23.86C55.42 25.4 57.13 26.34 58.69 25.88C60.27 25.41 61.18 23.73 60.71 22.15C59.33 17.53 56.85 13.23 53.52 9.71C52.38 8.51 50.48 8.46 49.28 9.59C48.08 10.73 48.03 12.63 49.16 13.83C51.85 16.67 53.85 20.14 54.96 23.86Z" fill="black"/>
<path d="M13.66 11.69C13.64 10.89 13.3 10.14 12.72 9.59C12.14 9.04 11.4 8.77 10.66 8.77C9.86 8.77 9.07 9.08 8.48 9.71C3.01 15.49 0 23.05 0 31C0 48.09 13.91 62 31 62C44.61 62 56.83 52.89 60.71 39.86C61.18 38.27 60.28 36.6 58.69 36.13C57.11 35.66 55.43 36.56 54.96 38.15C51.83 48.66 41.98 56.01 31 56.01C17.21 56.01 6 44.8 6 31.01C6 24.6 8.43 18.5 12.84 13.84C13.39 13.26 13.68 12.5 13.66 11.69Z" fill="black"/>
</svg>
