<svg width="63" height="62" viewBox="0 0 63 62" fill="none" xmlns="http://www.w3.org/2000/svg">
<path d="M63 25.43C63 20.97 60.8 16.8 57.11 14.29L39.59 2.34999C37.34 0.819995 34.71 0.00999451 31.99 0.00999451C29.27 0.00999451 26.64 0.819995 24.39 2.34999L6.87 14.29C3.18 16.8 0.979996 20.97 0.979996 25.43V51C0.979996 57.07 5.91 62 11.98 62H51.98C58.05 62 62.98 57.07 62.98 51V25.43H63ZM39 56H25V42C25 40.35 26.35 39 28 39H36C37.65 39 39 40.35 39 42V56ZM57 51C57 53.76 54.76 56 52 56H45V42C45 37.04 40.96 33 36 33H28C23.04 33 19 37.04 19 42V56H12C9.24 56 7 53.76 7 51V25.43C7 22.95 8.22 20.64 10.27 19.25L27.79 7.30999C30.28 5.60999 33.73 5.60999 36.22 7.30999L53.74 19.25C55.79 20.65 57.01 22.96 57.01 25.43V51H57Z" fill="black"/>
</svg>
