<svg width="60" height="56" viewBox="0 0 60 56" fill="none" xmlns="http://www.w3.org/2000/svg">
<path d="M17.12 10.88C15.99 9.75 14.01 9.75 12.88 10.88L3 20.76C1.07 22.69 0 25.27 0 28C0 30.73 1.07 33.31 3 35.24L12.88 45.12C14.01 46.25 15.99 46.25 17.12 45.12C18.25 43.99 18.29 42.05 17.12 40.88L7.24 31H23.91C27.16 31 30.11 32.79 31.6 35.67L38.06 48.1C40.59 52.98 45.58 56 51.08 56H56.99C58.64 56 59.99 54.65 59.99 53C59.99 51.35 58.64 50 56.99 50H51.08C47.83 50 44.88 48.21 43.39 45.33L36.93 32.9C36.11 31.33 35.03 29.93 33.7 28.74L32.87 28L33.7 27.26C35.02 26.07 36.11 24.67 36.93 23.1L43.39 10.67C44.89 7.79 47.84 6 51.08 6H56.99C58.64 6 59.99 4.65 59.99 3C59.99 1.35 58.64 0 56.99 0H51.08C45.58 0 40.6 3.03 38.06 7.9L31.6 20.33C30.1 23.21 27.15 25 23.91 25H7.24L17.12 15.12C18.29 13.95 18.29 12.05 17.12 10.88Z" fill="black"/>
</svg>
