<svg width="63" height="63" viewBox="0 0 63 63" fill="none" xmlns="http://www.w3.org/2000/svg">
<path d="M10 62C10.93 62 11.85 61.87 12.75 61.62L17.3 60.32C17.93 60.14 18.56 60.05 19.18 60.05C19.83 60.05 20.46 60.15 21.06 60.36C25.18 61.78 29.62 62.29 33.97 61.87C48.86 60.45 60.87 48.14 61.93 33.24C62.69 22.55 58.14 12.64 49.46 6.07C44.3 2.16 37.75 0.0100021 31.01 0.0100021C30.26 0.0100021 29.51 0.0400021 28.78 0.0900021C13.88 1.14 1.58 13.16 0.149999 28.04C-0.270001 32.38 0.230001 36.69 1.62 40.83C2.04 42.07 2.09 43.32 1.76 44.45L0.450001 49.05C-0.339999 51.81 -0.00999928 54.73 1.37 57.06C3.17 60.12 6.48 62.02 10.01 62.02L10 62ZM6.12 28.61C7.27 16.61 17.19 6.92 29.2 6.07C29.79 6.03 30.4 6.01 31.01 6.01C36.45 6.01 41.72 7.73 45.84 10.85C52.87 16.18 56.55 24.18 55.94 32.82C55.09 44.83 45.4 54.75 33.4 55.9C32.59 55.98 31.79 56.01 30.99 56.01C28.26 56.01 25.58 55.57 23.01 54.68C20.7 53.89 18.15 53.84 15.66 54.55L11.11 55.85C9.36 56.35 7.48 55.59 6.54 54C6 53.09 5.89 51.88 6.22 50.69L7.53 46.09C8.19 43.79 8.11 41.3 7.31 38.91C6.19 35.57 5.79 32.11 6.12 28.61Z" fill="black"/>
<path d="M37 23H21C19.35 23 18 24.35 18 26C18 27.65 19.35 29 21 29H37C38.65 29 40 27.65 40 26C40 24.35 38.65 23 37 23Z" fill="black"/>
<path d="M41 34H25C23.35 34 22 35.35 22 37C22 38.65 23.35 40 25 40H41C42.65 40 44 38.65 44 37C44 35.35 42.65 34 41 34Z" fill="black"/>
</svg>
