<svg width="58" height="62" viewBox="0 0 58 62" fill="none" xmlns="http://www.w3.org/2000/svg">
<path d="M34 56H24C22.35 56 21 57.35 21 59C21 60.65 22.35 62 24 62H34C35.65 62 37 60.65 37 59C37 57.35 35.65 56 34 56Z" fill="black"/>
<path d="M7.64 25.16C7.46 26.61 6.79 27.97 5.75 29.01L2.74 32.02C0.97 33.79 0 36.14 0 38.64C0 43.8 4.2 48 9.36 48H48.63C53.79 48 57.99 43.8 57.99 38.64C57.99 36.14 57.02 33.79 55.25 32.02L52.24 29C51.21 27.97 50.54 26.6 50.35 25.15L49.45 18.02C48.15 7.74 39.35 0 29 0C18.65 0 9.85 7.75 8.55 18.02L7.65 25.15L7.64 25.16ZM13.59 25.91L14.49 18.78C15.41 11.49 21.65 6 28.99 6C36.33 6 42.57 11.49 43.49 18.78L44.39 25.91C44.74 28.67 46.02 31.28 47.98 33.24L50.99 36.25C51.62 36.88 51.97 37.74 51.97 38.63C51.97 40.48 50.46 41.99 48.61 41.99H9.36C7.51 41.99 6 40.48 6 38.63C6 37.74 6.36 36.88 6.98 36.25L9.99 33.24C11.96 31.27 13.23 28.67 13.58 25.91H13.59Z" fill="black"/>
</svg>
