<svg width="58" height="62" viewBox="0 0 58 62" fill="none" xmlns="http://www.w3.org/2000/svg">
<path d="M29 15C22.93 15 18 19.93 18 26C18 30.64 20.95 34.8 25.33 36.36L26 36.6V44.01C26 45.66 27.35 47.01 29 47.01C30.65 47.01 32 45.66 32 44.01V36.6L32.67 36.36C37.06 34.8 40 30.64 40 26C40 19.93 35.07 15 29 15ZM29 31C26.24 31 24 28.76 24 26C24 23.24 26.24 21 29 21C31.76 21 34 23.24 34 26C34 28.76 31.76 31 29 31Z" fill="black"/>
<path d="M58 16.81C58 12.18 55.07 8.02 50.72 6.46L36.22 1.26C33.9 0.43 31.47 0 29 0C26.53 0 24.1 0.42 21.78 1.26L7.28 6.46C2.92 8.02 0 12.18 0 16.81V27.71C0 40.27 6.78 51.92 17.69 58.13L20.55 59.76C25.69 62.68 32.3 62.68 37.44 59.76L40.3 58.13C51.21 51.92 57.99 40.26 57.99 27.71V16.81H58ZM52 27.71C52 38.11 46.38 47.77 37.34 52.92L34.48 54.55C32.81 55.5 30.92 56 29 56C27.08 56 25.19 55.5 23.52 54.55L20.66 52.92C11.62 47.78 6 38.12 6 27.71V16.81C6 14.71 7.33 12.81 9.31 12.1L23.81 6.9C27.15 5.7 30.85 5.7 34.19 6.9L48.69 12.1C50.67 12.81 52 14.7 52 16.81V27.71Z" fill="black"/>
</svg>
