<svg width="62" height="62" viewBox="0 0 62 62" fill="none" xmlns="http://www.w3.org/2000/svg">
<path d="M31 0C13.91 0 0 13.91 0 31C0 48.09 13.91 62 31 62C48.09 62 62 48.09 62 31C62 13.91 48.09 0 31 0ZM44.38 52.1C40.37 54.65 35.74 56 31 56C26.26 56 21.63 54.65 17.62 52.1L16.79 51.57L18.32 49.09C21.01 44.72 25.87 42 31.01 42C36.15 42 41.01 44.72 43.7 49.09L45.23 51.57L44.4 52.1H44.38ZM24 29C24 25.14 27.14 22 31 22C34.86 22 38 25.14 38 29C38 32.86 34.86 36 31 36C27.14 36 24 32.86 24 29ZM50.66 46.41L49.77 47.54L48.79 45.95C46.97 42.99 44.38 40.51 41.31 38.76L40.28 38.17L41.04 37.25C42.95 34.93 44 32 44 29C44 21.83 38.17 16 31 16C23.83 16 18 21.83 18 29C18 32 19.05 34.93 20.96 37.25L21.72 38.17L20.69 38.76C17.62 40.51 15.03 42.99 13.21 45.95L12.23 47.54L11.34 46.41C7.85 41.97 6 36.64 6 31C6 17.21 17.21 6 31 6C44.79 6 56 17.21 56 31C56 36.64 54.15 41.97 50.66 46.41Z" fill="black"/>
</svg>
