<svg xmlns="http://www.w3.org/2000/svg" viewBox="0 0 60 60"><g id="Layer_2" data-name="Layer 2"><g id="Layer_1-2" data-name="Layer 1"><path d="M60,20A11,11,0,0,0,49,9H39.34l-.29-.5a5.93,5.93,0,0,0-.58-.87l-4-5A7,7,0,0,0,29,0H12A12,12,0,0,0,0,12V49A11,11,0,0,0,11,60H49A11,11,0,0,0,60,49ZM12.21,6H29a1,1,0,0,1,.78.38L34.28,12l-4.5,5.62A1,1,0,0,1,29,18H12a6,6,0,0,1-5.95-6.79A6.15,6.15,0,0,1,12.21,6ZM54,49a5,5,0,0,1-5,5H11a5,5,0,0,1-5-5V22.49l1.39.58A12,12,0,0,0,12,24H29a7,7,0,0,0,5.47-2.63l4-5a7.26,7.26,0,0,0,.58-.87l.29-.5H49a5,5,0,0,1,5,5Z"/></g></g></svg>