<svg width="62" height="62" viewBox="0 0 62 62" fill="none" xmlns="http://www.w3.org/2000/svg">
<path d="M61.12 56.88L46.38 42.14L46.89 41.45C50.23 36.95 51.99 31.61 51.99 26C51.99 11.66 40.33 0 25.99 0C11.65 0 -0.0100098 11.66 -0.0100098 26C-0.0100098 40.34 11.65 52 25.99 52C31.59 52 36.93 50.24 41.44 46.9L42.13 46.39L56.87 61.13C58 62.26 59.98 62.26 61.11 61.13C62.28 59.96 62.28 58.06 61.11 56.89L61.12 56.88ZM26 46C14.97 46 5.99999 37.03 5.99999 26C5.99999 14.97 14.97 6 26 6C37.03 6 46 14.97 46 26C46 37.03 37.03 46 26 46Z" fill="black"/>
</svg>
