<svg width="62" height="59" viewBox="0 0 62 59" fill="none" xmlns="http://www.w3.org/2000/svg">
<path d="M9.59749 9.0175L2.13749 21.9475C-0.682508 26.8275 -0.682509 33.1375 2.13749 38.0175L9.59749 50.9475C12.4575 55.9075 17.7875 58.9875 23.5175 58.9875H38.4475C44.1675 58.9875 49.5075 55.9075 52.3675 50.9475L59.8275 38.0175C61.2375 35.5775 61.9775 32.7975 61.9775 29.9775C61.9775 27.1575 61.2375 24.3775 59.8275 21.9375L52.3675 9.0075C49.5075 4.0475 44.1775 0.9675 38.4475 0.967499L23.5175 0.967499C17.7975 0.967499 12.4575 4.0475 9.59749 9.0075V9.0175ZM38.4475 6.9775C42.0375 6.9775 45.3775 8.9075 47.1675 12.0175L54.6275 24.9475C56.3975 28.0075 56.3975 31.9575 54.6275 35.0175L47.1675 47.9475C45.3775 51.0575 42.0275 52.9875 38.4475 52.9875H23.5175C19.9275 52.9875 16.5875 51.0575 14.7975 47.9475L7.33749 35.0175C6.45749 33.4875 5.98749 31.7475 5.98749 29.9775C5.98749 28.2075 6.45749 26.4675 7.33749 24.9375L14.7975 12.0075C16.5875 8.8975 19.9275 6.9675 23.5175 6.9675L38.4475 6.9675V6.9775Z" fill="black"/>
<path d="M31 42C37.62 42 43 36.62 43 30C43 23.38 37.62 18 31 18C24.38 18 19 23.38 19 30C19 36.62 24.38 42 31 42ZM31 24C34.31 24 37 26.69 37 30C37 33.31 34.31 36 31 36C27.69 36 25 33.31 25 30C25 26.69 27.69 24 31 24Z" fill="black"/>
</svg>
