<svg xmlns="http://www.w3.org/2000/svg" viewBox="0 0 62 62"><g id="Layer_2" data-name="Layer 2"><g id="Layer_1-2" data-name="Layer 1"><path d="M18,31.07V36a8,8,0,0,0,8,8h4.93a11.92,11.92,0,0,0,8.49-3.52L60,20A7,7,0,0,0,62,15,15,15,0,0,0,47,0a7,7,0,0,0-5,2.05L21.51,22.58A11.91,11.91,0,0,0,18,31.07Zm6,0a5.93,5.93,0,0,1,1.76-4.24L46.59,6H47a9,9,0,0,1,9,9v.41L35.17,36.24A6,6,0,0,1,30.93,38H26a2,2,0,0,1-2-2Z"/><path d="M21.05,1.18a2.17,2.17,0,0,0-.36,0c-1,.13-2.08.27-3.12.44A19.76,19.76,0,0,0,1.14,17.83,84.14,84.14,0,0,0,0,31.56,83,83,0,0,0,1.14,45.29,19.63,19.63,0,0,0,17.28,61.42,71.73,71.73,0,0,0,29.19,62c1.58,0,3.12,0,4.61,0a61.68,61.68,0,0,0,10.93-.57A19.75,19.75,0,0,0,60.91,45c.17-1,.32-2.08.44-3.13a2.88,2.88,0,0,0-.72-2.29,3,3,0,0,0-5.24,1.64q-.2,1.55-.45,3.06a13.56,13.56,0,0,1-11,11.19,77.69,77.69,0,0,1-25.64,0A13.64,13.64,0,0,1,7.05,44.3a77.46,77.46,0,0,1,0-25.66,13.54,13.54,0,0,1,11.19-11q1.53-.25,3.06-.45a3,3,0,0,0,2.67-3,3,3,0,0,0-1-2.26A2.86,2.86,0,0,0,21,1.17Z"/></g></g></svg>